# Blender v2.76 (sub 0) OBJ File: ''
# www.blender.org
mtllib plus2.mtl
o Sphere.002
v 1.001146 0.065083 0.000000
v 0.959524 0.117275 0.000000
v -0.959524 0.117275 0.000000
v 1.001146 0.040578 -0.050884
v 0.959524 0.073120 -0.091689
v 0.899378 0.091179 -0.114335
v -0.899378 0.091179 -0.114335
v -0.959524 0.073120 -0.091689
v -1.001146 0.040578 -0.050884
v 1.001146 -0.014482 -0.063451
v 0.959524 -0.026096 -0.114335
v 0.899378 -0.032541 -0.142573
v -0.899378 -0.032542 -0.142573
v -0.959524 -0.026096 -0.114335
v -1.001146 -0.014482 -0.063451
v 1.016001 0.000000 0.000000
v 1.001146 -0.058638 -0.028238
v 0.959524 -0.105661 -0.050884
v 0.899378 -0.131758 -0.063451
v -0.899378 -0.131758 -0.063451
v -0.959524 -0.105661 -0.050884
v -1.001146 -0.058638 -0.028238
v 1.001146 -0.058638 0.028238
v 0.959524 -0.105661 0.050884
v 0.899378 -0.131758 0.063451
v -0.899378 -0.131758 0.063451
v -0.959524 -0.105661 0.050884
v -1.001146 -0.058638 0.028238
v 1.001146 -0.014482 0.063451
v 0.959524 -0.026096 0.114335
v 0.899378 -0.032541 0.142573
v -0.899378 -0.032542 0.142573
v -0.959524 -0.026096 0.114335
v -1.001146 -0.014482 0.063451
v 1.001146 0.040578 0.050884
v 0.959524 0.073120 0.091689
v 0.899378 0.091179 0.114335
v -0.899378 0.091179 0.114335
v -0.959524 0.073120 0.091689
v -1.001146 0.040578 0.050884
v -1.016001 -0.000000 0.000000
v 0.899378 0.146240 0.000000
v -0.899378 0.146240 0.000000
v -1.001146 0.065083 -0.000000
v -0.065083 -0.000000 1.001146
v -0.117275 -0.000000 0.959524
v -0.117275 -0.000000 -0.959524
v -0.040578 0.050884 1.001146
v -0.073120 0.091689 0.959524
v -0.091179 0.114335 0.899378
v -0.091179 0.114335 -0.899378
v -0.073120 0.091689 -0.959524
v -0.040579 0.050884 -1.001146
v 0.014482 0.063451 1.001146
v 0.026096 0.114335 0.959524
v 0.032541 0.142573 0.899378
v 0.032541 0.142573 -0.899378
v 0.026096 0.114335 -0.959524
v 0.014482 0.063451 -1.001146
v -0.000000 -0.000000 1.016001
v 0.058638 0.028238 1.001146
v 0.105661 0.050884 0.959524
v 0.131758 0.063451 0.899378
v 0.131758 0.063451 -0.899378
v 0.105661 0.050884 -0.959524
v 0.058638 0.028238 -1.001146
v 0.058638 -0.028238 1.001146
v 0.105661 -0.050884 0.959524
v 0.131758 -0.063451 0.899378
v 0.131758 -0.063451 -0.899378
v 0.105661 -0.050884 -0.959524
v 0.058638 -0.028238 -1.001146
v 0.014482 -0.063451 1.001146
v 0.026096 -0.114335 0.959524
v 0.032541 -0.142573 0.899378
v 0.032541 -0.142573 -0.899378
v 0.026096 -0.114335 -0.959524
v 0.014482 -0.063451 -1.001146
v -0.040579 -0.050884 1.001146
v -0.073120 -0.091690 0.959524
v -0.091179 -0.114335 0.899378
v -0.091179 -0.114335 -0.899378
v -0.073120 -0.091689 -0.959524
v -0.040579 -0.050884 -1.001146
v -0.000000 -0.000000 -1.016001
v -0.146240 -0.000000 0.899378
v -0.146240 -0.000000 -0.899378
v -0.065083 0.000000 -1.001146
v -0.065083 1.001146 0.000000
v -0.117275 0.959524 0.000000
v -0.117275 -0.959524 0.000000
v -0.040578 1.001146 -0.050884
v -0.073120 0.959524 -0.091689
v -0.091179 0.899378 -0.114335
v -0.091179 -0.899378 -0.114335
v -0.073120 -0.959524 -0.091689
v -0.040579 -1.001146 -0.050884
v 0.014482 1.001146 -0.063451
v 0.026096 0.959524 -0.114335
v 0.032541 0.899378 -0.142573
v 0.032541 -0.899378 -0.142573
v 0.026096 -0.959524 -0.114335
v 0.014482 -1.001146 -0.063451
v -0.000000 1.016001 0.000000
v 0.058638 1.001146 -0.028238
v 0.105661 0.959524 -0.050884
v 0.131758 0.899378 -0.063451
v 0.131758 -0.899378 -0.063451
v 0.105661 -0.959524 -0.050884
v 0.058638 -1.001146 -0.028238
v 0.058638 1.001146 0.028238
v 0.105661 0.959524 0.050884
v 0.131758 0.899378 0.063451
v 0.131758 -0.899378 0.063451
v 0.105661 -0.959524 0.050884
v 0.058638 -1.001146 0.028238
v 0.014482 1.001146 0.063451
v 0.026096 0.959524 0.114335
v 0.032541 0.899378 0.142573
v 0.032541 -0.899378 0.142573
v 0.026096 -0.959524 0.114335
v 0.014482 -1.001146 0.063451
v -0.040579 1.001146 0.050884
v -0.073120 0.959524 0.091689
v -0.091179 0.899378 0.114335
v -0.091179 -0.899378 0.114335
v -0.073120 -0.959524 0.091689
v -0.040579 -1.001146 0.050884
v -0.000000 -1.016001 0.000000
v -0.146240 0.899378 0.000000
v -0.146240 -0.899378 0.000000
v -0.065083 -1.001146 -0.000000
vt 0.153772 0.177785
vt 0.137853 0.185451
vt 0.122905 0.173531
vt 0.126836 0.156305
vt 0.104265 0.177785
vt 0.093249 0.163971
vt 0.649956 0.734666
vt 0.629595 0.728553
vt 0.629595 0.770436
vt 0.649956 0.768254
vt 0.020657 0.728553
vt 0.000296 0.734666
vt 0.000296 0.768254
vt 0.020657 0.770436
vt 0.198968 0.173531
vt 0.202900 0.156305
vt 0.169312 0.163971
vt 0.180328 0.177785
vt 0.629595 0.804024
vt 0.649956 0.795190
vt 0.000296 0.795190
vt 0.020657 0.804024
vt 0.154364 0.195011
vt 0.172033 0.195011
vt 0.095969 0.195011
vt 0.078301 0.195011
vt 0.649956 0.919386
vt 0.629595 0.923640
vt 0.629595 0.880680
vt 0.649956 0.884934
vt 0.020657 0.923640
vt 0.000296 0.919386
vt 0.000296 0.884934
vt 0.020657 0.880680
vt 0.169312 0.226051
vt 0.180328 0.212237
vt 0.104265 0.212237
vt 0.093249 0.226051
vt 0.202900 0.233717
vt 0.198968 0.216491
vt 0.629595 0.880088
vt 0.020657 0.880088
vt 0.020657 0.846500
vt 0.629595 0.846500
vt 0.122905 0.216491
vt 0.126836 0.233717
vt 0.649956 0.871253
vt 0.649956 0.844318
vt 0.000296 0.871253
vt 0.000296 0.844318
vt 0.229835 0.212237
vt 0.213916 0.204571
vt 0.020657 0.804616
vt 0.629595 0.804616
vt 0.137853 0.204571
vt 0.153772 0.212237
vt 0.649956 0.810730
vt 0.000296 0.810730
vt 0.629595 0.650548
vt 0.020657 0.650548
vt 0.020657 0.689254
vt 0.629595 0.689254
vt 0.194065 0.195011
vt 0.213916 0.185451
vt 0.649956 0.689254
vt 0.629595 0.727961
vt 0.649956 0.720294
vt 0.000296 0.689254
vt 0.000296 0.720294
vt 0.020657 0.727960
vt 0.118002 0.195011
vt 0.229835 0.177785
vt 0.649956 0.658215
vt 0.000296 0.658215
vt 0.245375 0.163971
vt 0.256392 0.177785
vt 0.248096 0.195011
vt 0.230428 0.195011
vt 0.256392 0.212237
vt 0.245375 0.226051
vt 0.721847 0.727961
vt 0.727961 0.707599
vt 0.686077 0.707599
vt 0.688259 0.727961
vt 0.727961 0.098662
vt 0.721847 0.078301
vt 0.688259 0.078301
vt 0.686077 0.098662
vt 0.256392 0.099781
vt 0.245376 0.085967
vt 0.230428 0.117007
vt 0.248096 0.117007
vt 0.652489 0.707599
vt 0.661324 0.727961
vt 0.661324 0.078301
vt 0.652489 0.098662
vt 0.245375 0.148046
vt 0.256392 0.134232
vt 0.275032 0.216491
vt 0.278963 0.233717
vt 0.000296 0.928487
vt 0.020657 0.924233
vt 0.020657 0.967193
vt 0.000296 0.962939
vt 0.629595 0.924233
vt 0.649956 0.928487
vt 0.649956 0.962939
vt 0.629595 0.967193
vt 0.278963 0.155713
vt 0.275032 0.138487
vt 0.289980 0.204571
vt 0.305899 0.212237
vt 0.305899 0.134232
vt 0.289980 0.126566
vt 0.728553 0.629595
vt 0.728553 0.020657
vt 0.762141 0.020657
vt 0.762141 0.629595
vt 0.289980 0.185451
vt 0.305899 0.177785
vt 0.737387 0.649956
vt 0.764323 0.649956
vt 0.737387 0.000296
vt 0.764323 0.000296
vt 0.305899 0.099781
vt 0.289980 0.107447
vt 0.804024 0.020657
vt 0.804024 0.629595
vt 0.275032 0.173531
vt 0.278963 0.156305
vt 0.797911 0.649956
vt 0.797911 0.000296
vt 0.098662 0.077708
vt 0.707599 0.077708
vt 0.707599 0.039002
vt 0.098662 0.039002
vt 0.270129 0.117007
vt 0.275032 0.095526
vt 0.078301 0.039002
vt 0.098662 0.000296
vt 0.078301 0.007962
vt 0.727961 0.039002
vt 0.727961 0.007962
vt 0.707599 0.000296
vt 0.270129 0.195011
vt 0.278963 0.078301
vt 0.078301 0.070042
vt 0.727961 0.070042
vt 0.093249 0.085967
vt 0.104265 0.099781
vt 0.122905 0.095526
vt 0.126836 0.078301
vt 0.137853 0.107447
vt 0.153772 0.099781
vt 0.950038 0.649956
vt 0.956151 0.629595
vt 0.914268 0.629595
vt 0.916450 0.649956
vt 0.956151 0.020657
vt 0.950038 0.000296
vt 0.916450 0.000296
vt 0.914268 0.020657
vt 0.172033 0.117007
vt 0.154364 0.117007
vt 0.169312 0.085967
vt 0.180328 0.099781
vt 0.880680 0.629595
vt 0.889514 0.649956
vt 0.889514 0.000296
vt 0.880680 0.020657
vt 0.202900 0.078301
vt 0.198968 0.095526
vt 0.137853 0.126566
vt 0.153772 0.134232
vt 0.960998 0.649956
vt 0.956743 0.629595
vt 0.999704 0.629595
vt 0.995449 0.649956
vt 0.956743 0.020657
vt 0.960998 0.000296
vt 0.995449 0.000296
vt 0.999704 0.020657
vt 0.229835 0.099781
vt 0.213916 0.107447
vt 0.122905 0.138487
vt 0.126836 0.155713
vt 0.229835 0.134232
vt 0.213916 0.126566
vt 0.804616 0.629595
vt 0.804616 0.020657
vt 0.838204 0.020657
vt 0.838204 0.629595
vt 0.104265 0.134232
vt 0.093249 0.148046
vt 0.813451 0.649956
vt 0.840386 0.649956
vt 0.813451 0.000296
vt 0.840386 0.000296
vt 0.202900 0.155713
vt 0.198968 0.138487
vt 0.880088 0.020657
vt 0.880088 0.629595
vt 0.095969 0.117007
vt 0.078301 0.117007
vt 0.873974 0.649956
vt 0.873974 0.000296
vt 0.077708 0.629595
vt 0.077708 0.020657
vt 0.039002 0.020657
vt 0.039002 0.629595
vt 0.194066 0.117007
vt 0.180328 0.134232
vt 0.039002 0.649956
vt 0.000296 0.629595
vt 0.007962 0.649956
vt 0.039002 0.000296
vt 0.007962 0.000296
vt 0.000296 0.020657
vt 0.118002 0.117007
vt 0.169312 0.148046
vt 0.070042 0.649956
vt 0.070042 0.000296
vn 0.748800 0.597200 -0.287600
vn 0.748800 0.147500 -0.646200
vn -0.398000 0.204100 -0.894400
vn 0.398000 0.204100 -0.894400
vn -0.748800 0.147500 -0.646200
vn -0.000000 0.222500 -0.974900
vn -0.398000 -0.572000 -0.717200
vn 0.398000 -0.572000 -0.717200
vn -0.748800 -0.413200 -0.518200
vn 0.000000 -0.623500 -0.781800
vn 0.748800 -0.413200 -0.518200
vn -0.398000 -0.917400 0.000000
vn 0.398000 -0.917400 0.000000
vn -0.748800 -0.662800 0.000000
vn 0.000000 -1.000000 0.000000
vn 0.748800 -0.662800 0.000000
vn -0.748800 -0.413200 0.518200
vn 0.000000 -0.623500 0.781800
vn 0.748800 -0.413200 0.518200
vn -0.398000 -0.572000 0.717200
vn 0.398000 -0.572000 0.717200
vn -0.748800 0.147500 0.646200
vn -0.000000 0.222500 0.974900
vn 0.748800 0.147500 0.646200
vn -0.398000 0.204100 0.894400
vn 0.398000 0.204100 0.894400
vn -0.000000 0.901000 0.433900
vn -0.969400 0.221300 -0.106600
vn -0.398000 0.826500 -0.398000
vn 0.398000 0.826500 -0.398000
vn 0.969400 0.221300 -0.106600
vn -0.748800 0.597200 -0.287600
vn -0.000000 0.901000 -0.433900
vn -0.969400 0.054600 -0.239400
vn 0.969400 0.054600 -0.239400
vn -0.969400 -0.153100 -0.192000
vn 0.969400 -0.153100 -0.192000
vn 0.969400 -0.245600 0.000000
vn -0.969400 -0.245600 0.000000
vn 0.969400 -0.153100 0.192000
vn -0.969400 -0.153100 0.192000
vn -0.969400 0.054600 0.239400
vn 0.969400 0.054600 0.239400
vn 0.748800 0.597200 0.287600
vn -0.969400 0.221300 0.106600
vn -0.398000 0.826500 0.398000
vn 0.398000 0.826500 0.398000
vn 0.969400 0.221300 0.106600
vn -0.748800 0.597200 0.287600
vn -0.597200 0.287600 0.748800
vn -0.147500 0.646200 0.748800
vn -0.204100 0.894400 -0.398000
vn -0.204100 0.894400 0.398000
vn -0.147500 0.646200 -0.748800
vn -0.222500 0.974900 0.000000
vn 0.572000 0.717200 -0.398000
vn 0.572000 0.717200 0.398000
vn 0.413200 0.518200 -0.748800
vn 0.623500 0.781800 0.000000
vn 0.413200 0.518200 0.748800
vn 0.917400 0.000000 -0.398000
vn 0.917400 0.000000 0.398000
vn 0.662800 -0.000000 -0.748800
vn 1.000000 0.000000 0.000000
vn 0.662800 -0.000000 0.748800
vn 0.413200 -0.518200 -0.748800
vn 0.623500 -0.781800 -0.000000
vn 0.413200 -0.518200 0.748800
vn 0.572000 -0.717200 -0.398000
vn 0.572000 -0.717200 0.398000
vn -0.147500 -0.646200 -0.748800
vn -0.222500 -0.974900 -0.000000
vn -0.147500 -0.646200 0.748800
vn -0.204100 -0.894400 -0.398000
vn -0.204100 -0.894400 0.398000
vn -0.901000 -0.433900 -0.000000
vn -0.221300 0.106600 -0.969400
vn -0.826500 0.398000 -0.398000
vn -0.826500 0.398000 0.398000
vn -0.221300 0.106600 0.969400
vn -0.597200 0.287600 -0.748800
vn -0.901000 0.433900 0.000000
vn -0.054600 0.239400 -0.969400
vn -0.054600 0.239400 0.969400
vn 0.153100 0.192000 -0.969400
vn 0.153100 0.192000 0.969400
vn 0.245600 -0.000000 0.969400
vn 0.245600 -0.000000 -0.969400
vn 0.153100 -0.192000 0.969400
vn 0.153100 -0.192000 -0.969400
vn -0.054600 -0.239400 -0.969400
vn -0.054600 -0.239400 0.969400
vn -0.597200 -0.287600 0.748800
vn -0.221300 -0.106600 -0.969400
vn -0.826500 -0.398000 -0.398000
vn -0.826500 -0.398000 0.398000
vn -0.221300 -0.106600 0.969400
vn -0.597200 -0.287600 -0.748800
vn -0.597200 0.748800 -0.287600
vn -0.147500 0.748800 -0.646200
vn -0.204100 -0.398000 -0.894400
vn -0.204100 0.398000 -0.894400
vn -0.147500 -0.748800 -0.646200
vn -0.222500 0.000000 -0.974900
vn 0.572000 -0.398000 -0.717200
vn 0.572000 0.398000 -0.717200
vn 0.413200 -0.748800 -0.518200
vn 0.623500 0.000000 -0.781800
vn 0.413200 0.748800 -0.518200
vn 0.917400 -0.398000 0.000000
vn 0.917400 0.398000 0.000000
vn 0.662800 -0.748800 0.000000
vn 0.662800 0.748800 0.000000
vn 0.413200 -0.748800 0.518200
vn 0.623500 0.000000 0.781800
vn 0.413200 0.748800 0.518200
vn 0.572000 -0.398000 0.717200
vn 0.572000 0.398000 0.717200
vn -0.147500 -0.748800 0.646200
vn -0.222500 0.000000 0.974900
vn -0.147500 0.748800 0.646200
vn -0.204100 -0.398000 0.894400
vn -0.204100 0.398000 0.894400
vn -0.901000 0.000000 0.433900
vn -0.221300 -0.969400 -0.106600
vn -0.221300 0.969400 -0.106600
vn -0.597200 -0.748800 -0.287600
vn -0.901000 0.000000 -0.433900
vn -0.054600 -0.969400 -0.239400
vn -0.054600 0.969400 -0.239400
vn 0.153100 -0.969400 -0.192000
vn 0.153100 0.969400 -0.192000
vn 0.245600 0.969400 0.000000
vn 0.245600 -0.969400 -0.000000
vn 0.153100 0.969400 0.192000
vn 0.153100 -0.969400 0.192000
vn -0.054600 -0.969400 0.239400
vn -0.054600 0.969400 0.239400
vn -0.597200 0.748800 0.287600
vn -0.221300 -0.969400 0.106600
vn -0.221300 0.969400 0.106600
vn -0.597200 -0.748800 0.287600
usemtl Material.001
s off
f 2/1/1 1/2/1 4/3/1 5/4/1
f 5/4/2 4/3/2 10/5/2 11/6/2
f 8/7/3 7/8/3 13/9/3 14/10/3
f 6/11/4 5/12/4 11/13/4 12/14/4
f 9/15/5 8/16/5 14/17/5 15/18/5
f 7/8/6 6/11/6 12/14/6 13/9/6
f 14/10/7 13/9/7 20/19/7 21/20/7
f 12/14/8 11/13/8 18/21/8 19/22/8
f 15/18/9 14/17/9 21/23/9 22/24/9
f 13/9/10 12/14/10 19/22/10 20/19/10
f 11/6/11 10/5/11 17/25/11 18/26/11
f 21/27/12 20/28/12 26/29/12 27/30/12
f 19/31/13 18/32/13 24/33/13 25/34/13
f 22/24/14 21/23/14 27/35/14 28/36/14
f 20/28/15 19/31/15 25/34/15 26/29/15
f 18/26/16 17/25/16 23/37/16 24/38/16
f 28/36/17 27/35/17 33/39/17 34/40/17
f 26/41/18 25/42/18 31/43/18 32/44/18
f 24/38/19 23/37/19 29/45/19 30/46/19
f 27/47/20 26/41/20 32/44/20 33/48/20
f 25/42/21 24/49/21 30/50/21 31/43/21
f 34/40/22 33/39/22 39/51/22 40/52/22
f 32/44/23 31/43/23 37/53/23 38/54/23
f 30/46/24 29/45/24 35/55/24 36/56/24
f 33/48/25 32/44/25 38/54/25 39/57/25
f 31/43/26 30/50/26 36/58/26 37/53/26
f 38/59/27 37/60/27 42/61/27 43/62/27
f 41/63/28 44/64/28 9/15/28
f 3/65/29 43/62/29 7/66/29 8/67/29
f 42/61/30 2/68/30 5/69/30 6/70/30
f 1/2/31 16/71/31 4/3/31
f 44/64/32 3/72/32 8/16/32 9/15/32
f 43/62/33 42/61/33 6/70/33 7/66/33
f 41/63/34 9/15/34 15/18/34
f 4/3/35 16/71/35 10/5/35
f 41/63/36 15/18/36 22/24/36
f 10/5/37 16/71/37 17/25/37
f 17/25/38 16/71/38 23/37/38
f 41/63/39 22/24/39 28/36/39
f 23/37/40 16/71/40 29/45/40
f 41/63/41 28/36/41 34/40/41
f 41/63/42 34/40/42 40/52/42
f 29/45/43 16/71/43 35/55/43
f 36/56/44 35/55/44 1/2/44 2/1/44
f 41/63/45 40/52/45 44/64/45
f 39/73/46 38/59/46 43/62/46 3/65/46
f 37/60/47 36/74/47 2/68/47 42/61/47
f 35/55/48 16/71/48 1/2/48
f 40/52/49 39/51/49 3/72/49 44/64/49
f 46/75/50 45/76/50 48/77/50 49/78/50
f 49/78/51 48/77/51 54/79/51 55/80/51
f 52/81/52 51/82/52 57/83/52 58/84/52
f 50/85/53 49/86/53 55/87/53 56/88/53
f 53/89/54 52/90/54 58/91/54 59/92/54
f 51/82/55 50/85/55 56/88/55 57/83/55
f 58/84/56 57/83/56 64/93/56 65/94/56
f 56/88/57 55/87/57 62/95/57 63/96/57
f 59/92/58 58/91/58 65/97/58 66/98/58
f 57/83/59 56/88/59 63/96/59 64/93/59
f 55/80/60 54/79/60 61/99/60 62/100/60
f 65/101/61 64/102/61 70/103/61 71/104/61
f 63/105/62 62/106/62 68/107/62 69/108/62
f 66/98/63 65/97/63 71/109/63 72/110/63
f 64/102/64 63/105/64 69/108/64 70/103/64
f 62/100/65 61/99/65 67/111/65 68/112/65
f 72/110/66 71/109/66 77/113/66 78/114/66
f 70/115/67 69/116/67 75/117/67 76/118/67
f 68/112/68 67/111/68 73/119/68 74/120/68
f 71/121/69 70/115/69 76/118/69 77/122/69
f 69/116/70 68/123/70 74/124/70 75/117/70
f 78/114/71 77/113/71 83/125/71 84/126/71
f 76/118/72 75/117/72 81/127/72 82/128/72
f 74/120/73 73/119/73 79/129/73 80/130/73
f 77/122/74 76/118/74 82/128/74 83/131/74
f 75/117/75 74/124/75 80/132/75 81/127/75
f 82/133/76 81/134/76 86/135/76 87/136/76
f 85/137/77 88/138/77 53/89/77
f 47/139/78 87/136/78 51/140/78 52/141/78
f 86/135/79 46/142/79 49/143/79 50/144/79
f 45/76/80 60/145/80 48/77/80
f 88/138/81 47/146/81 52/90/81 53/89/81
f 87/136/82 86/135/82 50/144/82 51/140/82
f 85/137/83 53/89/83 59/92/83
f 48/77/84 60/145/84 54/79/84
f 85/137/85 59/92/85 66/98/85
f 54/79/86 60/145/86 61/99/86
f 61/99/87 60/145/87 67/111/87
f 85/137/88 66/98/88 72/110/88
f 67/111/89 60/145/89 73/119/89
f 85/137/90 72/110/90 78/114/90
f 85/137/91 78/114/91 84/126/91
f 73/119/92 60/145/92 79/129/92
f 80/130/93 79/129/93 45/76/93 46/75/93
f 85/137/94 84/126/94 88/138/94
f 83/147/95 82/133/95 87/136/95 47/139/95
f 81/134/96 80/148/96 46/142/96 86/135/96
f 79/129/97 60/145/97 45/76/97
f 84/126/98 83/125/98 47/146/98 88/138/98
f 90/149/99 89/150/99 92/151/99 93/152/99
f 93/152/100 92/151/100 98/153/100 99/154/100
f 96/155/101 95/156/101 101/157/101 102/158/101
f 94/159/102 93/160/102 99/161/102 100/162/102
f 97/163/103 96/164/103 102/165/103 103/166/103
f 95/156/104 94/159/104 100/162/104 101/157/104
f 102/158/105 101/157/105 108/167/105 109/168/105
f 100/162/106 99/161/106 106/169/106 107/170/106
f 103/166/107 102/165/107 109/171/107 110/172/107
f 101/157/108 100/162/108 107/170/108 108/167/108
f 99/154/109 98/153/109 105/173/109 106/174/109
f 109/175/110 108/176/110 114/177/110 115/178/110
f 107/179/111 106/180/111 112/181/111 113/182/111
f 110/172/112 109/171/112 115/183/112 116/184/112
f 108/176/64 107/179/64 113/182/64 114/177/64
f 106/174/113 105/173/113 111/185/113 112/186/113
f 116/184/114 115/183/114 121/187/114 122/188/114
f 114/189/115 113/190/115 119/191/115 120/192/115
f 112/186/116 111/185/116 117/193/116 118/194/116
f 115/195/117 114/189/117 120/192/117 121/196/117
f 113/190/118 112/197/118 118/198/118 119/191/118
f 122/188/119 121/187/119 127/199/119 128/200/119
f 120/192/120 119/191/120 125/201/120 126/202/120
f 118/194/121 117/193/121 123/203/121 124/204/121
f 121/196/122 120/192/122 126/202/122 127/205/122
f 119/191/123 118/198/123 124/206/123 125/201/123
f 126/207/124 125/208/124 130/209/124 131/210/124
f 129/211/125 132/212/125 97/163/125
f 91/213/95 131/210/95 95/214/95 96/215/95
f 130/209/78 90/216/78 93/217/78 94/218/78
f 89/150/126 104/219/126 92/151/126
f 132/212/127 91/220/127 96/164/127 97/163/127
f 131/210/128 130/209/128 94/218/128 95/214/128
f 129/211/129 97/163/129 103/166/129
f 92/151/130 104/219/130 98/153/130
f 129/211/131 103/166/131 110/172/131
f 98/153/132 104/219/132 105/173/132
f 105/173/133 104/219/133 111/185/133
f 129/211/134 110/172/134 116/184/134
f 111/185/135 104/219/135 117/193/135
f 129/211/136 116/184/136 122/188/136
f 129/211/137 122/188/137 128/200/137
f 117/193/138 104/219/138 123/203/138
f 124/204/139 123/203/139 89/150/139 90/149/139
f 129/211/140 128/200/140 132/212/140
f 127/221/96 126/207/96 131/210/96 91/213/96
f 125/208/79 124/222/79 90/216/79 130/209/79
f 123/203/141 104/219/141 89/150/141
f 128/200/142 127/199/142 91/220/142 132/212/142
